<svg xmlns="http://www.w3.org/2000/svg" width="14" height="16" viewBox="0 0 14 16">
  <g id="Group_58" data-name="Group 58" transform="translate(-11046 -1913)">
    <g id="file1" transform="translate(11046 1913)">
      <path id="Path_21" data-name="Path 21" d="M2.767,0A1.311,1.311,0,0,0,1.5,1.267V14.733A1.311,1.311,0,0,0,2.767,16H14.233A1.311,1.311,0,0,0,15.5,14.733V5.067L10.767,0h-8Z" transform="translate(-1.5)" fill="#f2f1f6" fill-rule="evenodd"/>
      <path id="Path_22" data-name="Path 22" d="M22.5,7.6V8H17.7s-2.4-.5-2.3-2.5a2.176,2.176,0,0,0,2.2,2.1Z" transform="translate(-8.5 -2.047)" fill="#dcd9e4" fill-rule="evenodd"/>
      <path id="Path_23" data-name="Path 23" d="M15.4,0V5.5a2.123,2.123,0,0,0,2.3,2.1h4.8Z" transform="translate(-8.5)" fill="#fff" fill-rule="evenodd" opacity="0.5"/>
    </g>
    <g id="Group_40" data-name="Group 40" transform="translate(11046 1917.434)">
      <path id="Path_2" data-name="Path 2" d="M105.062,662l-1.674,1.988-3-3.563-3.813,4.528h10.975Z" transform="translate(-96.574 -656.247)" fill="#85dabb"/>
      <circle id="Ellipse_1" data-name="Ellipse 1" cx="1.657" cy="1.657" r="1.657" transform="translate(6.069)" fill="#ffdb72"/>
    </g>
  </g>
</svg>
