<svg xmlns="http://www.w3.org/2000/svg" width="14" height="16" viewBox="0 0 14 16">
  <g id="Group_60" data-name="Group 60" transform="translate(-10975 -1913)">
    <g id="file1" transform="translate(10975 1913)">
      <path id="Path_21" data-name="Path 21" d="M2.767,0A1.311,1.311,0,0,0,1.5,1.267V14.733A1.311,1.311,0,0,0,2.767,16H14.233A1.311,1.311,0,0,0,15.5,14.733V5.067L10.767,0h-8Z" transform="translate(-1.5)" fill="#d26053" fill-rule="evenodd"/>
      <path id="Path_22" data-name="Path 22" d="M22.5,7.6V8H17.7s-2.4-.5-2.3-2.5a2.176,2.176,0,0,0,2.2,2.1Z" transform="translate(-8.5 -2.047)" fill="#a5483c" fill-rule="evenodd"/>
      <path id="Path_23" data-name="Path 23" d="M15.4,0V5.5a2.123,2.123,0,0,0,2.3,2.1h4.8Z" transform="translate(-8.5)" fill="#b3483b" fill-rule="evenodd" opacity="0.5"/>
    </g>
    <text id="PDF" transform="translate(10982.111 1924.077)" fill="#fff" font-size="9" font-family="AvenyT-Bold, Aveny T" font-weight="700"><tspan x="-5.968" y="0">PDF</tspan></text>
  </g>
</svg>
